<svg width="25" height="25" viewBox="0 0 25 25" fill="none" xmlns="http://www.w3.org/2000/svg">
<path d="M7.80278 9.44395C8.45272 8.47124 9.37653 7.7131 10.4573 7.2654C11.5382 6.81772 12.7275 6.70055 13.8749 6.92878C15.0222 7.15701 16.0762 7.72037 16.9034 8.54758L23.127 14.7712C24.3097 15.9539 24.3097 17.8714 23.127 19.0541L21.086 21.0952C19.9875 22.1937 18.6833 23.0651 17.2481 23.6596C15.8128 24.2541 14.2745 24.5601 12.7209 24.5601C11.1674 24.5601 9.62905 24.2541 8.19378 23.6596C6.93358 23.1376 5.77445 22.4021 4.76686 21.4869C4.53472 21.276 4.53563 20.9154 4.75738 20.6936L5.62735 19.8237C5.8491 19.6019 6.20751 19.6033 6.44215 19.8114C7.22829 20.5084 8.12609 21.0706 9.0992 21.4737C10.2474 21.9493 11.4781 22.1941 12.7209 22.1941C13.9637 22.1941 15.1944 21.9493 16.3426 21.4737C17.4908 20.9981 18.5341 20.301 19.413 19.4221L21.1194 17.7157C21.5629 17.2722 21.5629 16.5531 21.1194 16.1096L15.2304 10.2206C14.7341 9.72427 14.1017 9.38627 13.4133 9.24933C12.7249 9.11239 12.0113 9.18269 11.3628 9.4513C10.7143 9.71991 10.16 10.1748 9.77004 10.7584C9.38007 11.342 9.17194 12.0282 9.17194 12.7301C9.17194 13.4321 9.38011 14.1182 9.77007 14.7018C10.16 15.2855 10.7143 15.7404 11.3628 16.009C12.0113 16.2776 12.7249 16.3478 13.4133 16.2109C13.9152 16.1111 14.3872 15.9044 14.7985 15.6074C15.0528 15.4238 15.4102 15.4194 15.6319 15.6411L16.5019 16.5111C16.7237 16.7329 16.7252 17.0948 16.4832 17.2943C15.7316 17.9139 14.836 18.3403 13.8749 18.5315C12.7275 18.7597 11.5382 18.6425 10.4573 18.1949C9.37653 17.7472 8.45273 16.989 7.80278 16.0163C7.15284 15.0436 6.80594 13.9 6.80594 12.7301C6.80594 11.5603 7.15284 10.4167 7.80278 9.44395ZM1.59961 8.6972C2.50803 6.1921 4.23562 4.06704 6.50251 2.66633C8.76939 1.26562 11.4428 0.671251 14.0896 0.97956C16.7365 1.28787 19.2017 2.4808 21.086 4.36505L24.0305 7.30955C24.2522 7.5313 24.2522 7.89084 24.0305 8.11259L23.1605 8.98256C22.9387 9.20431 22.5792 9.20432 22.3574 8.98256L19.4129 6.03806C17.9055 4.53066 15.9333 3.57633 13.8159 3.32968C11.6984 3.08304 9.55969 3.55851 7.74619 4.67907C5.93268 5.79964 4.5506 7.49969 3.82386 9.50377C3.16181 11.3295 3.07894 13.3101 3.57879 15.1773C3.65989 15.4802 3.50081 15.8015 3.20328 15.9006L2.03603 16.2895C1.7385 16.3886 1.41555 16.228 1.33081 15.926C0.664681 13.5521 0.755844 11.024 1.59961 8.6972Z" fill="#202020"/>
</svg>
